<svg viewBox="0 0 600 700" xmlns="http://www.w3.org/2000/svg">

  <!-- ══════════════════════════════════════════════════
       CITECHECK — Sumi-e Hero Illustration
       Scene: Mountain river · Cherry tree · Samurai scholar
       Style: Minimalist ink, caricature marker figure
       ══════════════════════════════════════════════════ -->

  <defs>
    <filter id="paper" x="0%" y="0%" width="100%" height="100%">
      <feTurbulence type="fractalNoise" baseFrequency="0.65" numOctaves="3" stitchTiles="stitch" result="noise"/>
      <feColorMatrix type="saturate" values="0" in="noise" result="grey"/>
      <feBlend in="SourceGraphic" in2="grey" mode="multiply" result="blend"/>
      <feComposite in="blend" in2="SourceGraphic" operator="in"/>
    </filter>
    <filter id="roughen" x="-5%" y="-5%" width="110%" height="110%">
      <feTurbulence type="turbulence" baseFrequency="0.035" numOctaves="2" result="noise" seed="5"/>
      <feDisplacementMap in="SourceGraphic" in2="noise" scale="1.2" xChannelSelector="R" yChannelSelector="G"/>
    </filter>
  </defs>

  <!-- ── Textured paper background ── -->
  <rect width="600" height="700" fill="#F0E8D4"/>
  <rect width="600" height="700" fill="#E4D8BE" opacity="0.35" filter="url(#paper)"/>
  <!-- Aged edge vignette -->
  <rect x="0" y="0" width="600" height="700" fill="none" stroke="#C0A870" stroke-width="18" opacity="0.2"/>

  <!-- Faint sky wash -->
  <rect x="0" y="0" width="600" height="340" fill="#EAE0CC" opacity="0.28"/>

  <!-- ══════════════════════════════════════════════════
       RED SUN — bold, simple disc, upper left
       ══════════════════════════════════════════════════ -->
  <circle cx="112" cy="114" r="44" fill="#C8281E" opacity="0.9"/>
  <circle cx="100" cy="102" r="15" fill="#E03020" opacity="0.2"/>

  <!-- Ink birds in sky -->
  <path d="M198 84 Q207 77 216 84"   stroke="#1A1208" stroke-width="1.8" fill="none" stroke-linecap="round"/>
  <path d="M224 72 Q235 64 246 72"   stroke="#1A1208" stroke-width="1.8" fill="none" stroke-linecap="round"/>
  <path d="M258 90 Q267 83 276 90"   stroke="#1A1208" stroke-width="1.5" fill="none" stroke-linecap="round"/>
  <path d="M182 100 Q190 94 198 100" stroke="#1A1208" stroke-width="1.3" fill="none" stroke-linecap="round"/>

  <!-- ══════════════════════════════════════════════════
       MOUNTAINS — Sumi-e line ridges, minimal
       ══════════════════════════════════════════════════ -->

  <!-- Distant range — very faint ink wash -->
  <path d="M0 316 Q55 242 118 278 Q172 242 228 262 Q285 234 342 256 Q396 230 454 250 Q510 228 566 246 Q588 236 600 242 L600 700 L0 700 Z"
        fill="#B8A882" opacity="0.18"/>
  <path d="M0 316 Q55 242 118 278 Q172 242 228 262 Q285 234 342 256 Q396 230 454 250 Q510 228 566 246 Q588 236 600 242"
        stroke="#1A1208" stroke-width="0.7" fill="none" opacity="0.22" stroke-linecap="round"/>

  <!-- Mid mountain ridge — clean ink line -->
  <path d="M0 374 Q48 296 106 332 Q152 294 198 314 Q244 280 292 306 Q338 278 384 302 Q420 282 462 298 Q508 274 554 294 Q578 282 600 290 L600 700 L0 700 Z"
        fill="#A89468" opacity="0.25"/>
  <path d="M0 374 Q48 296 106 332 Q152 294 198 314 Q244 280 292 306 Q338 278 384 302 Q420 282 462 298 Q508 274 554 294 Q578 282 600 290"
        stroke="#1A1208" stroke-width="1.3" fill="none" opacity="0.48" stroke-linecap="round"/>

  <!-- Near mountain left — bolder, ink wash  -->
  <path d="M-10 425 Q28 332 88 362 Q124 326 168 348 Q198 322 240 342 L240 700 L-10 700 Z"
        fill="#9C8858" opacity="0.32"/>
  <path d="M-10 425 Q28 332 88 362 Q124 326 168 348 Q198 322 240 342"
        stroke="#1A1208" stroke-width="2.2" fill="none" opacity="0.58" stroke-linecap="round"/>
  <!-- Mountain shadow strokes -->
  <path d="M58 348 Q65 362 62 380"  stroke="#1A1208" stroke-width="0.7" fill="none" opacity="0.22" stroke-linecap="round"/>
  <path d="M100 334 Q106 348 103 366" stroke="#1A1208" stroke-width="0.7" fill="none" opacity="0.2" stroke-linecap="round"/>
  <path d="M142 330 Q146 342 144 358" stroke="#1A1208" stroke-width="0.6" fill="none" opacity="0.18" stroke-linecap="round"/>

  <!-- ══════════════════════════════════════════════════
       WINDING RIVER — S-curve, Sumi-e style
       ══════════════════════════════════════════════════ -->

  <!-- River fill -->
  <path d="M185 345 Q218 362 238 384 Q258 404 244 435 Q230 465 252 495 Q274 524 260 556 Q248 582 266 625 L266 700 L196 700 L180 625 Q162 580 176 552 Q190 522 168 492 Q146 462 162 430 Q178 400 160 380 Q144 360 158 342 Z"
        fill="#9CB8C4" opacity="0.42"/>

  <!-- River banks — ink strokes -->
  <path d="M164 340 Q150 362 162 392 Q174 420 154 454 Q134 488 158 522 Q182 554 164 590 Q150 622 160 665"
        stroke="#1A1208" stroke-width="1.4" fill="none" opacity="0.48" stroke-linecap="round"/>
  <path d="M238 344 Q252 364 240 394 Q228 422 246 456 Q264 490 250 524 Q236 556 254 592 Q268 624 262 668"
        stroke="#1A1208" stroke-width="1.2" fill="none" opacity="0.4" stroke-linecap="round"/>

  <!-- River ripples -->
  <path d="M174 400 Q188 395 202 400" stroke="#1A1208" stroke-width="0.8" fill="none" opacity="0.28" stroke-linecap="round"/>
  <path d="M160 438 Q175 432 190 438" stroke="#1A1208" stroke-width="0.7" fill="none" opacity="0.24" stroke-linecap="round"/>
  <path d="M182 474 Q197 468 212 474" stroke="#1A1208" stroke-width="0.7" fill="none" opacity="0.22" stroke-linecap="round"/>
  <path d="M168 510 Q184 505 198 510" stroke="#1A1208" stroke-width="0.6" fill="none" opacity="0.18" stroke-linecap="round"/>

  <!-- Small boat -->
  <path d="M172 518 Q190 510 208 518" stroke="#1A1208" stroke-width="2.5" fill="none" stroke-linecap="round" opacity="0.55"/>
  <line x1="190" y1="510" x2="190" y2="492" stroke="#1A1208" stroke-width="1.3" opacity="0.48"/>
  <path d="M184 492 Q190 484 196 492" stroke="#1A1208" stroke-width="1" fill="none" opacity="0.43"/>
  <circle cx="178" cy="511" r="3.5" fill="#1A1208" opacity="0.45"/>

  <!-- Ground / near bank -->
  <path d="M0 582 Q80 565 162 575 Q242 562 322 576 Q402 564 482 574 Q542 566 600 572 L600 700 L0 700 Z"
        fill="#988454" opacity="0.36"/>
  <path d="M0 582 Q80 565 162 575 Q242 562 322 576 Q402 564 482 574 Q542 566 600 572"
        stroke="#1A1208" stroke-width="1.6" fill="none" opacity="0.44" stroke-linecap="round"/>

  <!-- Grass tufts -->
  <path d="M294 576 Q298 562 304 574 Q308 560 314 572" stroke="#1A1208" stroke-width="1.3" fill="none" stroke-linecap="round" opacity="0.42"/>
  <path d="M68  578 Q72  565 77  576 Q81  562 86  574"  stroke="#1A1208" stroke-width="1.2" fill="none" stroke-linecap="round" opacity="0.36"/>
  <path d="M522 572 Q526 558 531 570 Q535 556 540 568" stroke="#1A1208" stroke-width="1.2" fill="none" stroke-linecap="round" opacity="0.33"/>

  <!-- ══════════════════════════════════════════════════
       CHERRY BLOSSOM TREE — right side, bold Sumi-e
       ══════════════════════════════════════════════════ -->
  <g transform="translate(468, 345)">

    <!-- Root spurs -->
    <path d="M-6 234 Q-22 214 -15 198" stroke="#1A1208" stroke-width="5" stroke-linecap="round" fill="none" opacity="0.68"/>
    <path d="M10 236 Q26  216 18  200" stroke="#1A1208" stroke-width="4" stroke-linecap="round" fill="none" opacity="0.62"/>

    <!-- Main trunk — bold brush, tapers up -->
    <path d="M0 232 Q-9 182 -5 140 Q-13 88 -2 44 Q7 12 3 -18"
          stroke="#1A1208" stroke-width="10" stroke-linecap="round" fill="none" opacity="0.88"/>
    <!-- Trunk details -->
    <path d="M-4 152 Q5 140 -2 128"  stroke="#1A1208" stroke-width="1.5" fill="none" opacity="0.28" stroke-linecap="round"/>

    <!-- Branches — calligraphic sweeps -->
    <path d="M-2 72  Q-44 42  -80 10"   stroke="#1A1208" stroke-width="5.5" stroke-linecap="round" fill="none" opacity="0.82"/>
    <path d="M2  50  Q38  14  76  -12"   stroke="#1A1208" stroke-width="5"   stroke-linecap="round" fill="none" opacity="0.78"/>
    <path d="M-2 110 Q-54 90  -90 64"   stroke="#1A1208" stroke-width="4.5" stroke-linecap="round" fill="none" opacity="0.72"/>
    <path d="M2  38  Q24  4   48  -26"   stroke="#1A1208" stroke-width="4"   stroke-linecap="round" fill="none" opacity="0.7"/>
    <path d="M-2 30  Q-18 -4  -32 -36"  stroke="#1A1208" stroke-width="3.5" stroke-linecap="round" fill="none" opacity="0.65"/>

    <!-- Sub-branches -->
    <path d="M-80  10  Q-102 -10 -108 -32" stroke="#1A1208" stroke-width="2.8" stroke-linecap="round" fill="none" opacity="0.6"/>
    <path d="M76  -12  Q95  -34  96  -56"   stroke="#1A1208" stroke-width="2.5" stroke-linecap="round" fill="none" opacity="0.57"/>
    <path d="M-90  64  Q-114 46 -118 24"   stroke="#1A1208" stroke-width="2.2" stroke-linecap="round" fill="none" opacity="0.54"/>
    <path d="M48  -26  Q64  -48  60  -68"   stroke="#1A1208" stroke-width="2"   stroke-linecap="round" fill="none" opacity="0.52"/>
    <path d="M-32 -36  Q-46 -56 -42  -74"  stroke="#1A1208" stroke-width="1.8" stroke-linecap="round" fill="none" opacity="0.5"/>
    <path d="M-108 -32 Q-116 -50 -113 -62" stroke="#1A1208" stroke-width="1.4" stroke-linecap="round" fill="none" opacity="0.42"/>
    <path d="M96  -56  Q102 -70  100 -82"   stroke="#1A1208" stroke-width="1.3" stroke-linecap="round" fill="none" opacity="0.4"/>

    <!-- ── Blossom clusters ── -->
    <!-- Cluster A — far left -->
    <circle cx="-110" cy="-55" r="25" fill="#EED8CE" opacity="0.72"/>
    <circle cx="-97"  cy="-69" r="19" fill="#EAD0C4" opacity="0.68"/>
    <circle cx="-124" cy="-63" r="18" fill="#F2DEDA" opacity="0.65"/>
    <circle cx="-90"  cy="-80" r="14" fill="#EED8CE" opacity="0.6"/>
    <!-- Red accents A -->
    <circle cx="-110" cy="-59" r="5.5" fill="#C8281E" opacity="0.55"/>
    <circle cx="-98"  cy="-72" r="4"   fill="#C8281E" opacity="0.5"/>
    <circle cx="-124" cy="-66" r="4"   fill="#C8281E" opacity="0.48"/>
    <circle cx="-91"  cy="-83" r="3"   fill="#C8281E" opacity="0.42"/>
    <!-- Five-petal blossom A -->
    <g transform="translate(-110,-57)" opacity="0.72">
      <circle cx="0"    cy="-8"  r="5" fill="#F8E8E2"/>
      <circle cx="7.6"  cy="-2.5" r="5" fill="#F4E0D8"/>
      <circle cx="4.7"  cy="6.5"  r="5" fill="#F8E8E2"/>
      <circle cx="-4.7" cy="6.5"  r="5" fill="#F4E0D8"/>
      <circle cx="-7.6" cy="-2.5" r="5" fill="#F8E8E2"/>
      <circle cx="0"    cy="0"    r="4" fill="#C8281E" opacity="0.62"/>
    </g>

    <!-- Cluster B — right -->
    <circle cx="92"  cy="-58" r="23" fill="#F0DDD4" opacity="0.7"/>
    <circle cx="80"  cy="-72" r="17" fill="#ECD5C8" opacity="0.66"/>
    <circle cx="106" cy="-66" r="17" fill="#F4E2D8" opacity="0.63"/>
    <circle cx="72"  cy="-82" r="13" fill="#EFDACE" opacity="0.58"/>
    <circle cx="92"  cy="-62" r="5"   fill="#C8281E" opacity="0.52"/>
    <circle cx="80"  cy="-75" r="4"   fill="#C8281E" opacity="0.48"/>
    <circle cx="106" cy="-69" r="4"   fill="#C8281E" opacity="0.46"/>
    <g transform="translate(92,-60)" opacity="0.68">
      <circle cx="0"    cy="-7"  r="4.5" fill="#F8E8E2"/>
      <circle cx="6.7"  cy="-2.2" r="4.5" fill="#F4E0D8"/>
      <circle cx="4.1"  cy="5.8"  r="4.5" fill="#F8E8E2"/>
      <circle cx="-4.1" cy="5.8"  r="4.5" fill="#F4E0D8"/>
      <circle cx="-6.7" cy="-2.2" r="4.5" fill="#F8E8E2"/>
      <circle cx="0"    cy="0"    r="3.5" fill="#C8281E" opacity="0.58"/>
    </g>

    <!-- Cluster C — lower branch -->
    <circle cx="-116" cy="25" r="20" fill="#EED8CA" opacity="0.66"/>
    <circle cx="-130" cy="13" r="15" fill="#EAD0BE" opacity="0.62"/>
    <circle cx="-128" cy="37" r="14" fill="#F0DDCE" opacity="0.6"/>
    <circle cx="-116" cy="22"  r="4" fill="#C8281E" opacity="0.47"/>
    <circle cx="-130" cy="11"  r="3" fill="#C8281E" opacity="0.43"/>

    <!-- Falling petals from tree -->
    <ellipse cx="-44" cy="30"  rx="5.5" ry="8" fill="#ECD5C4" opacity="0.52" transform="rotate(-34 -44 30)"/>
    <ellipse cx="30"  cy="58"  rx="5"   ry="7.5" fill="#ECD5C4" opacity="0.46" transform="rotate(24 30 58)"/>
    <ellipse cx="-20" cy="98"  rx="4.5" ry="7" fill="#ECD5C4" opacity="0.4" transform="rotate(-20 -20 98)"/>
    <ellipse cx="52"  cy="142" rx="5"   ry="6.5" fill="#ECD5C4" opacity="0.36" transform="rotate(40 52 142)"/>
  </g>

  <!-- Scattered petals across scene -->
  <ellipse cx="60"  cy="208" rx="5.5" ry="8"   fill="#ECD5C4" opacity="0.46" transform="rotate(-30 60 208)"/>
  <ellipse cx="316" cy="272" rx="5"   ry="7"   fill="#ECD5C4" opacity="0.4"  transform="rotate(16 316 272)"/>
  <ellipse cx="258" cy="448" rx="4.5" ry="6.5" fill="#ECD5C4" opacity="0.36" transform="rotate(-42 258 448)"/>
  <ellipse cx="378" cy="204" rx="5.5" ry="7.5" fill="#ECD5C4" opacity="0.42" transform="rotate(22 378 204)"/>

  <!-- ══════════════════════════════════════════════════
       SAMURAI — caricature in thick marker/brush style
       Sitting at base of tree, facing left, reading scroll
       ══════════════════════════════════════════════════ -->
  <g transform="translate(398, 486)" filter="url(#roughen)">

    <!-- ── Seated legs — cross-legged, chunky shapes ── -->
    <!-- Right leg (far) -->
    <path d="M-8 84 Q-38 92 -58 80 Q-70 70 -60 56 Q-48 44 -22 52 Q-6 58 -4 70 Z"
          fill="#1A1208" opacity="0.84"/>
    <path d="M-8 84 Q-38 92 -58 80 Q-70 70 -60 56 Q-48 44 -22 52 Q-6 58 -4 70 Z"
          fill="none" stroke="#1A1208" stroke-width="2.5" stroke-linejoin="round"/>
    <!-- Left leg (near) -->
    <path d="M8 84 Q38 92 58 80 Q70 70 60 56 Q48 44 22 52 Q6 58 4 70 Z"
          fill="#1A1208" opacity="0.84"/>
    <path d="M8 84 Q38 92 58 80 Q70 70 60 56 Q48 44 22 52 Q6 58 4 70 Z"
          fill="none" stroke="#1A1208" stroke-width="2.5" stroke-linejoin="round"/>
    <!-- Lap area fill -->
    <ellipse cx="0" cy="72" rx="46" ry="14" fill="#1A1208" opacity="0.15"/>

    <!-- ── Kimono body — wide, boxy silhouette ── -->
    <path d="M-24 50 Q-40 22 -32 4 Q-24 -12 0 -14 Q24 -12 32 4 Q40 22 24 50 Q14 62 0 64 Q-14 62 -24 50 Z"
          fill="#1A1208" opacity="0.86"/>
    <path d="M-24 50 Q-40 22 -32 4 Q-24 -12 0 -14 Q24 -12 32 4 Q40 22 24 50 Q14 62 0 64 Q-14 62 -24 50 Z"
          fill="none" stroke="#1A1208" stroke-width="3" stroke-linejoin="round"/>

    <!-- Collar V-line -->
    <path d="M-7 -12 Q0 -4 7 -12" stroke="#F0E8D4" stroke-width="2.5" fill="none" stroke-linecap="round" opacity="0.7"/>
    <path d="M-6 -2 Q0 4 6 -2"    stroke="#F0E8D4" stroke-width="1.8" fill="none" stroke-linecap="round" opacity="0.55"/>

    <!-- Obi belt — bold white stripe -->
    <path d="M-26 28 Q0 24 26 28" stroke="#F0E8D4" stroke-width="4.5" fill="none" stroke-linecap="round" opacity="0.68"/>
    <path d="M-24 36 Q0 32 24 36" stroke="#F0E8D4" stroke-width="2.2" fill="none" stroke-linecap="round" opacity="0.45"/>

    <!-- Fabric fold lines on robe -->
    <path d="M-10 18 Q-14 40 -16 58" stroke="#F0E8D4" stroke-width="1" fill="none" opacity="0.2" stroke-linecap="round"/>
    <path d="M10 18 Q14 40 16 58"    stroke="#F0E8D4" stroke-width="1" fill="none" opacity="0.2" stroke-linecap="round"/>

    <!-- ── Neck ── -->
    <rect x="-6" y="-21" width="12" height="11" rx="5" fill="#C8A878" opacity="0.9"/>

    <!-- ══════════════════════════════
         BIG CARICATURE HEAD
         Round, expressive, marker weight
         ══════════════════════════════ -->

    <!-- Head shape — large oval, cream skin -->
    <ellipse cx="0" cy="-48" rx="30" ry="28" fill="#C8A878" opacity="0.95"/>
    <!-- Thick marker outline -->
    <ellipse cx="0" cy="-48" rx="30" ry="28" fill="none" stroke="#1A1208" stroke-width="3.5"/>

    <!-- ── Samurai hair — chonmage topknot ── -->
    <!-- Shaved area / dark hair band above ears -->
    <path d="M-30 -54 Q-28 -76 -12 -76 Q0 -78 12 -76 Q28 -76 30 -54"
          fill="#1A1208" opacity="0.9" stroke="#1A1208" stroke-width="1"/>
    <!-- Topknot bun — chunky rounded rectangle -->
    <ellipse cx="0" cy="-78" rx="12" ry="8" fill="#1A1208" opacity="0.92"/>
    <path d="M-10 -78 Q0 -83 10 -78" stroke="#3A2818" stroke-width="1.2" fill="none" opacity="0.4"/>

    <!-- ── Caricature face — facing left (slightly) ── -->
    <!-- BIG circular eyes — marker blobs -->
    <circle cx="-8"  cy="-50" r="6.5" fill="#1A1208" opacity="0.92"/>
    <circle cx=" 10" cy="-50" r="6"   fill="#1A1208" opacity="0.88"/>
    <!-- Eye shine — marker style white dot -->
    <circle cx="-6.5" cy="-51.5" r="2.2" fill="#F0E8D4" opacity="0.95"/>
    <circle cx="11.5" cy="-51.5" r="2"   fill="#F0E8D4" opacity="0.92"/>

    <!-- Tiny dot nose -->
    <circle cx="1" cy="-40" r="3.2" fill="#A07848" opacity="0.6"/>

    <!-- Big happy curved mouth — reading with delight -->
    <path d="M-10 -32 Q0 -22 10 -32" stroke="#1A1208" stroke-width="3" fill="none" stroke-linecap="round" opacity="0.88"/>
    <!-- Lower lip suggestion -->
    <path d="M-6 -28 Q0 -24 6 -28"   stroke="#1A1208" stroke-width="1.2" fill="none" stroke-linecap="round" opacity="0.35"/>

    <!-- Rosy cheeks — ink circles, caricature feel -->
    <circle cx="-18" cy="-38" r="7" fill="#C86848" opacity="0.2"/>
    <circle cx=" 18" cy="-38" r="7" fill="#C86848" opacity="0.2"/>

    <!-- Concentration eyebrows — thick, angled inward -->
    <path d="M-16 -60 Q-10 -64 -3  -60" stroke="#1A1208" stroke-width="3"   fill="none" stroke-linecap="round" opacity="0.82"/>
    <path d="M  3 -60 Q  9 -64  16 -60" stroke="#1A1208" stroke-width="2.8" fill="none" stroke-linecap="round" opacity="0.82"/>

    <!-- Ear (left, visible) -->
    <path d="M-30 -50 Q-38 -50 -38 -42 Q-38 -34 -30 -38" stroke="#1A1208" stroke-width="2.5" fill="#C8A878" stroke-linecap="round" opacity="0.7"/>

    <!-- ── Arms — thick marker sleeves, extending to hold scroll ── -->
    <!-- LEFT arm — extends left -->
    <path d="M-26 10 Q-55 16 -84 20"
          stroke="#1A1208" stroke-width="11" stroke-linecap="round" fill="none" opacity="0.85"/>
    <!-- Left sleeve cuff -->
    <ellipse cx="-83" cy="20" rx="11" ry="8" fill="#1A1208" opacity="0.8" transform="rotate(-7 -83 20)"/>

    <!-- RIGHT arm — extends right -->
    <path d="M26 10 Q55 16 84 20"
          stroke="#1A1208" stroke-width="11" stroke-linecap="round" fill="none" opacity="0.85"/>
    <!-- Right sleeve cuff -->
    <ellipse cx="83" cy="20" rx="11" ry="8" fill="#1A1208" opacity="0.8" transform="rotate(7 83 20)"/>

    <!-- ══════════════════════════════════════════
         OPEN SCROLL — held between both hands
         Horizontal, unfurled, showing text
         ══════════════════════════════════════════ -->

    <!-- Scroll main paper -->
    <rect x="-80" y="27" width="160" height="56" rx="3" fill="#F5F0E4" opacity="0.97"/>
    <!-- Paper top shadow -->
    <rect x="-80" y="27" width="160" height="5" rx="2" fill="#D4C8A8" opacity="0.4"/>

    <!-- Left roller -->
    <rect x="-92" y="25" width="14" height="60" rx="7" fill="#5C4030" opacity="0.92"/>
    <ellipse cx="-85" cy="25" rx="10" ry="6" fill="#2C1808" opacity="0.88"/>
    <ellipse cx="-85" cy="85" rx="10" ry="6" fill="#2C1808" opacity="0.88"/>
    <rect x="-90" y="25" width="8" height="60" rx="4" fill="#7A5840" opacity="0.3"/>

    <!-- Right roller -->
    <rect x="78" y="25" width="14" height="60" rx="7" fill="#5C4030" opacity="0.92"/>
    <ellipse cx="85" cy="25" rx="10" ry="6" fill="#2C1808" opacity="0.88"/>
    <ellipse cx="85" cy="85" rx="10" ry="6" fill="#2C1808" opacity="0.88"/>
    <rect x="82" y="25" width="8" height="60" rx="4" fill="#7A5840" opacity="0.3"/>

    <!-- Scroll border rule (gold) -->
    <rect x="-74" y="33" width="148" height="40" fill="none" stroke="#9B8B5E" stroke-width="0.8" opacity="0.55"/>

    <!-- Scroll text lines — manuscript marks -->
    <g opacity="0.26" transform="translate(-67, 40)">
      <rect x="0" y="0"  width="134" height="2.2" rx="1" fill="#1A1208"/>
      <rect x="0" y="8"  width="128" height="2.2" rx="1" fill="#1A1208"/>
      <rect x="0" y="16" width="132" height="2.2" rx="1" fill="#1A1208"/>
      <rect x="0" y="24" width="118" height="2.2" rx="1" fill="#1A1208"/>
    </g>

    <!-- Red citation dots on scroll -->
    <circle cx="-64" cy="43"  r="3" fill="#C8281E" opacity="0.6"/>
    <circle cx="-64" cy="51"  r="3" fill="#C8281E" opacity="0.58"/>
    <circle cx="-64" cy="59"  r="3" fill="#C8281E" opacity="0.52"/>

    <!-- Small 引 seal on scroll -->
    <g transform="translate(44, 48)" opacity="0.65">
      <rect x="0" y="0" width="16" height="16" fill="none" stroke="#C8281E" stroke-width="1.2"/>
      <text x="1.5" y="13" font-size="10" fill="#C8281E" font-family="Georgia,serif">引</text>
    </g>

    <!-- Page curl on left edge -->
    <path d="M-80 78 Q-85 83 -80 85" stroke="#C8B890" stroke-width="0.8" fill="none" opacity="0.5"/>

    <!-- ── Sword hilt at hip — just a hint ── -->
    <path d="M30 54 Q40 42 50 36" stroke="#1A1208" stroke-width="5" stroke-linecap="round" fill="none" opacity="0.5"/>
    <ellipse cx="30" cy="56" rx="5.5" ry="3.5" fill="#1A1208" opacity="0.58" transform="rotate(-30 30 56)"/>

  </g>

  <!-- ══════════════════════════════════════════════════
       DECORATIVE FRAME — corner brackets
       ══════════════════════════════════════════════════ -->
  <path d="M22 22 L22 65 M22 22 L65 22"     stroke="#9B8B5E" stroke-width="2.2" opacity="0.48" stroke-linecap="round"/>
  <path d="M578 22 L578 65 M578 22 L535 22"  stroke="#9B8B5E" stroke-width="2.2" opacity="0.48" stroke-linecap="round"/>
  <path d="M22 678 L22 635 M22 678 L65 678"  stroke="#9B8B5E" stroke-width="2.2" opacity="0.48" stroke-linecap="round"/>
  <path d="M578 678 L578 635 M578 678 L535 678" stroke="#9B8B5E" stroke-width="2.2" opacity="0.48" stroke-linecap="round"/>

  <!-- ── Seal stamp bottom right ── -->
  <g transform="translate(498, 598)" opacity="0.5">
    <rect x="0" y="0" width="62" height="62" fill="#C8281E" opacity="0.1"/>
    <rect x="0" y="0" width="62" height="62" fill="none" stroke="#C8281E" stroke-width="2.2"/>
    <rect x="4" y="4" width="54" height="54" fill="none" stroke="#C8281E" stroke-width="0.8" opacity="0.5"/>
    <text x="5"  y="30" font-size="19" fill="#C8281E" font-family="Georgia,serif" font-weight="bold">引</text>
    <text x="5"  y="55" font-size="19" fill="#C8281E" font-family="Georgia,serif" font-weight="bold">用</text>
    <text x="33" y="30" font-size="19" fill="#C8281E" font-family="Georgia,serif" font-weight="bold">文</text>
    <text x="33" y="55" font-size="19" fill="#C8281E" font-family="Georgia,serif" font-weight="bold">献</text>
  </g>

  <!-- ── Fig caption ── -->
  <text x="28" y="690"
        font-family="'Lato','Helvetica Neue',sans-serif"
        font-size="8.5" letter-spacing="2.5"
        fill="#9B8B5E" opacity="0.55">(fig. 01) — THE SCHOLAR SAMURAI</text>

</svg>
